<?xml version="1.0" encoding="UTF-8"?>
<svg xmlns="http://www.w3.org/2000/svg" xmlns:xlink="http://www.w3.org/1999/xlink" width="118px" height="30px" viewBox="0 0 118 30" version="1.1">
<g id="surface1">
<path style=" stroke:none;fill-rule:nonzero;fill:rgb(99.607843%,99.607843%,99.607843%);fill-opacity:1;" d="M 23.46875 0.695312 C 23.800781 0.695312 23.800781 0.695312 24.140625 0.699219 C 24.503906 0.703125 24.503906 0.703125 24.871094 0.703125 C 25.25 0.710938 25.25 0.710938 25.636719 0.71875 C 25.890625 0.71875 26.144531 0.71875 26.40625 0.722656 C 28.28125 0.738281 28.28125 0.738281 28.554688 0.917969 C 28.578125 1.167969 28.585938 1.417969 28.585938 1.667969 C 28.585938 1.914062 28.585938 1.914062 28.585938 2.160156 C 28.585938 2.429688 28.585938 2.429688 28.582031 2.707031 C 28.582031 2.894531 28.582031 3.082031 28.582031 3.277344 C 28.582031 3.792969 28.582031 4.3125 28.578125 4.828125 C 28.578125 5.367188 28.578125 5.910156 28.578125 6.449219 C 28.578125 7.472656 28.574219 8.496094 28.574219 9.519531 C 28.570312 10.683594 28.570312 11.847656 28.566406 13.011719 C 28.566406 15.410156 28.5625 17.808594 28.554688 20.203125 C 30.96875 20.203125 33.382812 20.203125 35.871094 20.203125 C 35.871094 21.214844 35.871094 22.222656 35.871094 23.265625 C 33.457031 23.265625 31.042969 23.265625 28.554688 23.265625 C 28.558594 23.738281 28.5625 24.210938 28.5625 24.699219 C 28.566406 25.15625 28.566406 25.613281 28.570312 26.070312 C 28.570312 26.386719 28.570312 26.707031 28.574219 27.023438 C 28.578125 27.480469 28.578125 27.9375 28.578125 28.390625 C 28.582031 28.535156 28.582031 28.679688 28.582031 28.824219 C 28.582031 28.957031 28.582031 29.089844 28.582031 29.226562 C 28.582031 29.34375 28.582031 29.457031 28.585938 29.578125 C 28.554688 29.847656 28.554688 29.847656 28.320312 30 C 27.917969 30.011719 27.511719 30.015625 27.109375 30.015625 C 26.890625 30.015625 26.671875 30.015625 26.445312 30.015625 C 26.164062 30.011719 25.882812 30.011719 25.589844 30.007812 C 24.699219 30.007812 23.808594 30.003906 22.890625 30 C 22.890625 27.777344 22.890625 25.554688 22.890625 23.265625 C 15.882812 23.265625 8.875 23.265625 1.652344 23.265625 C 1.652344 19.757812 1.652344 19.757812 3.007812 18.796875 C 3.292969 18.570312 3.578125 18.34375 3.859375 18.117188 C 4.003906 18.007812 4.148438 17.894531 4.296875 17.78125 C 4.964844 17.257812 5.554688 16.699219 6.152344 16.136719 C 6.382812 15.921875 6.617188 15.707031 6.851562 15.492188 C 6.96875 15.386719 7.082031 15.28125 7.203125 15.167969 C 7.789062 14.628906 8.378906 14.085938 8.96875 13.546875 C 9.203125 13.328125 9.441406 13.113281 9.675781 12.894531 C 10.148438 12.460938 10.621094 12.027344 11.09375 11.59375 C 11.265625 11.433594 11.265625 11.433594 11.445312 11.269531 C 11.683594 11.050781 11.917969 10.835938 12.15625 10.617188 C 12.742188 10.078125 13.328125 9.539062 13.914062 8.996094 C 15.121094 7.886719 16.335938 6.78125 17.566406 5.683594 C 18.804688 4.578125 20.003906 3.457031 21.1875 2.324219 C 21.367188 2.152344 21.367188 2.152344 21.550781 1.976562 C 21.65625 1.875 21.761719 1.773438 21.871094 1.671875 C 21.972656 1.574219 22.078125 1.476562 22.183594 1.378906 C 22.289062 1.265625 22.390625 1.152344 22.5 1.039062 C 22.890625 0.765625 22.890625 0.765625 23.46875 0.695312 Z M 22.65625 6.429688 C 22.453125 6.589844 22.265625 6.753906 22.078125 6.921875 C 21.898438 7.085938 21.898438 7.085938 21.710938 7.253906 C 21.582031 7.371094 21.449219 7.492188 21.3125 7.613281 C 21.175781 7.738281 21.039062 7.863281 20.898438 7.988281 C 19.617188 9.152344 18.351562 10.324219 17.089844 11.496094 C 16.34375 12.191406 15.589844 12.882812 14.839844 13.574219 C 14.722656 13.679688 14.609375 13.785156 14.488281 13.894531 C 14.257812 14.105469 14.027344 14.316406 13.796875 14.527344 C 13.449219 14.851562 13.097656 15.171875 12.746094 15.496094 C 12.628906 15.601562 12.511719 15.710938 12.390625 15.824219 C 12.15625 16.039062 11.921875 16.253906 11.6875 16.46875 C 11.066406 17.042969 10.441406 17.613281 9.8125 18.1875 C 9.679688 18.304688 9.550781 18.425781 9.414062 18.550781 C 9.160156 18.78125 8.90625 19.011719 8.652344 19.246094 C 8.0625 19.6875 8.0625 19.6875 7.789062 20.203125 C 12.773438 20.203125 17.757812 20.203125 22.890625 20.203125 C 22.890625 15.65625 22.890625 11.113281 22.890625 6.429688 C 22.8125 6.429688 22.734375 6.429688 22.65625 6.429688 Z M 22.65625 6.429688 "/>
<path style=" stroke:none;fill-rule:nonzero;fill:rgb(99.607843%,99.607843%,99.607843%);fill-opacity:1;" d="M 84.253906 9.949219 C 86.867188 11.417969 87.746094 13.765625 88.027344 15.917969 C 88.058594 16.402344 88.058594 16.882812 88.054688 17.367188 C 88.054688 17.503906 88.054688 17.640625 88.054688 17.785156 C 88.054688 18.234375 88.054688 18.683594 88.050781 19.132812 C 88.050781 19.445312 88.050781 19.761719 88.050781 20.074219 C 88.050781 20.898438 88.046875 21.71875 88.042969 22.539062 C 88.042969 23.382812 88.039062 24.222656 88.039062 25.0625 C 88.035156 26.707031 88.03125 28.355469 88.027344 30 C 86.316406 30 84.601562 30 82.835938 30 C 82.832031 29.585938 82.828125 29.167969 82.824219 28.742188 C 82.8125 27.363281 82.796875 25.984375 82.78125 24.601562 C 82.769531 23.765625 82.761719 22.933594 82.753906 22.097656 C 82.75 21.289062 82.738281 20.480469 82.726562 19.671875 C 82.722656 19.367188 82.71875 19.058594 82.71875 18.753906 C 82.867188 15.421875 82.867188 15.421875 80.710938 12.550781 C 78.953125 11.703125 76.886719 11.53125 74.742188 11.667969 C 72.335938 11.988281 70.460938 12.964844 69.125 14.257812 C 67.175781 16.316406 66.917969 18.25 66.902344 20.613281 C 66.898438 20.886719 66.894531 21.15625 66.890625 21.429688 C 66.878906 22.136719 66.871094 22.847656 66.867188 23.558594 C 66.859375 24.285156 66.847656 25.011719 66.835938 25.738281 C 66.816406 27.15625 66.800781 28.578125 66.789062 30 C 65.074219 30 63.359375 30 61.597656 30 C 61.597656 23.082031 61.597656 16.160156 61.597656 9.03125 C 63.230469 9.03125 64.867188 9.03125 66.550781 9.03125 C 66.550781 9.992188 66.550781 10.949219 66.550781 11.9375 C 66.828125 11.78125 67.105469 11.625 67.394531 11.460938 C 67.566406 11.363281 67.742188 11.265625 67.921875 11.164062 C 68.230469 10.988281 68.535156 10.808594 68.832031 10.625 C 72.925781 8.152344 79.699219 7.835938 84.253906 9.949219 Z M 84.253906 9.949219 "/>
<path style=" stroke:none;fill-rule:nonzero;fill:rgb(99.607843%,99.607843%,99.607843%);fill-opacity:1;" d="M 116.113281 0.765625 C 116.113281 10.414062 116.113281 20.058594 116.113281 30 C 114.242188 30 112.375 30 110.449219 30 C 110.371094 21.917969 110.292969 13.835938 110.210938 5.511719 C 109.511719 5.964844 108.808594 6.417969 108.089844 6.886719 C 107.648438 7.136719 107.210938 7.386719 106.769531 7.632812 C 105.835938 8.167969 104.933594 8.722656 104.027344 9.273438 C 102.824219 10.003906 101.609375 10.726562 100.390625 11.449219 C 99.84375 11.765625 99.84375 11.765625 99.441406 12.0625 C 99.121094 12.246094 99.121094 12.246094 98.410156 12.246094 C 98.089844 11.824219 97.769531 11.402344 97.453125 10.980469 C 97.359375 10.863281 97.269531 10.746094 97.175781 10.621094 C 97.089844 10.507812 97.003906 10.390625 96.914062 10.273438 C 96.832031 10.167969 96.753906 10.058594 96.671875 9.953125 C 96.492188 9.578125 96.546875 9.394531 96.761719 9.03125 C 97.179688 8.707031 97.179688 8.707031 97.71875 8.371094 C 97.890625 8.261719 98.066406 8.152344 98.242188 8.039062 C 98.75 7.734375 99.265625 7.4375 99.785156 7.140625 C 100.746094 6.601562 101.675781 6.039062 102.601562 5.472656 C 105.371094 3.78125 105.371094 3.78125 106.699219 3.019531 C 107.199219 2.714844 107.609375 2.429688 108.039062 2.089844 C 110.648438 0.179688 111.488281 0.765625 116.113281 0.765625 Z M 116.113281 0.765625 "/>
<path style=" stroke:none;fill-rule:nonzero;fill:rgb(99.607843%,99.607843%,99.607843%);fill-opacity:1;" d="M 45.3125 9.03125 C 47.101562 9.03125 48.894531 9.03125 50.738281 9.03125 C 50.738281 15.949219 50.738281 22.871094 50.738281 30 C 48.949219 30 47.15625 30 45.3125 30 C 45.3125 23.082031 45.3125 16.160156 45.3125 9.03125 Z M 45.3125 9.03125 "/>
<path style=" stroke:none;fill-rule:nonzero;fill:rgb(99.607843%,99.607843%,99.607843%);fill-opacity:1;" d="M 45.3125 0 C 47.101562 0 48.894531 0 50.738281 0 C 50.738281 1.566406 50.738281 3.132812 50.738281 4.746094 C 48.949219 4.746094 47.15625 4.746094 45.3125 4.746094 C 45.3125 3.179688 45.3125 1.613281 45.3125 0 Z M 45.3125 0 "/>
</g>
</svg>
